<svg width="24" height="24" viewBox="0 0 24 24" fill="none" xmlns="http://www.w3.org/2000/svg">
    <path d="M 17.653 10.35 L 19.709 10.686 C 19.877 10.713 20 10.859 20 11.029 L 20 12.942 C 20 13.111 19.878 13.255 19.712 13.284 L 17.654 13.646 C 17.535 14.058 17.37 14.455 17.164 14.831 L 18.381 16.521 C 18.48 16.66 18.465 16.85 18.345 16.971 L 16.992 18.323 C 16.873 18.443 16.685 18.46 16.547 18.363 L 14.84 17.165 C 14.464 17.375 14.064 17.542 13.647 17.665 L 13.284 19.713 C 13.255 19.879 13.11 20.001 12.941 20 L 11.028 20 C 10.858 20 10.713 19.878 10.685 19.71 L 10.345 17.671 C 9.929 17.551 9.528 17.385 9.148 17.176 L 7.454 18.362 C 7.316 18.459 7.128 18.443 7.008 18.324 L 5.655 16.97 C 5.536 16.849 5.52 16.66 5.619 16.522 L 6.816 14.848 C 6.605 14.466 6.437 14.063 6.316 13.644 L 4.287 13.284 C 4.121 13.254 4 13.11 4 12.942 L 4 11.029 C 4 10.859 4.123 10.714 4.29 10.686 L 6.32 10.348 C 6.441 9.928 6.609 9.526 6.82 9.145 L 5.636 7.453 C 5.539 7.315 5.556 7.127 5.675 7.008 L 7.027 5.656 C 7.147 5.536 7.337 5.52 7.475 5.619 L 9.155 6.819 C 9.534 6.612 9.935 6.447 10.351 6.328 L 10.684 4.292 C 10.711 4.123 10.857 4 11.028 4 L 12.941 4 C 13.111 4 13.255 4.122 13.284 4.288 L 13.643 6.335 C 14.058 6.456 14.458 6.622 14.836 6.832 L 16.521 5.621 C 16.659 5.521 16.85 5.536 16.971 5.657 L 18.323 7.009 C 18.443 7.129 18.459 7.317 18.362 7.455 L 17.162 9.165 C 17.368 9.541 17.532 9.937 17.652 10.35 Z M 9.565 12 C 9.565 13.345 10.655 14.435 12 14.435 C 13.345 14.435 14.435 13.345 14.435 12 C 14.435 10.655 13.345 9.565 12 9.565 C 10.655 9.565 9.565 10.655 9.565 12 Z" fill="hsl(0, 0%, 100%)"></path>
</svg>
